Coordinates
version=1
nRows=16
nColumns=40
inDegrees=yes

Units are S.I. units (second, meters, Newtons, ...)
Angles are in degrees.

endheader
time	pelvis_tilt	pelvis_list	pelvis_rotation	pelvis_tx	pelvis_ty	pelvis_tz	hip_flexion_r	hip_adduction_r	hip_rotation_r	knee_angle_r	knee_angle_r_beta	ankle_angle_r	subtalar_angle_r	mtp_angle_r	hip_flexion_l	hip_adduction_l	hip_rotation_l	knee_angle_l	knee_angle_l_beta	ankle_angle_l	subtalar_angle_l	mtp_angle_l	lumbar_extension	lumbar_bending	lumbar_rotation	arm_flex_r	arm_add_r	arm_rot_r	elbow_flex_r	pro_sup_r	wrist_flex_r	wrist_dev_r	arm_flex_l	arm_add_l	arm_rot_l	elbow_flex_l	pro_sup_l	wrist_flex_l	wrist_dev_l
     24.09000000	     -5.75799647	     -7.91687577	      3.81565196	      1.02793001	      0.91305944	      0.48522027	     -2.85846146	      7.21027093	    -18.65206809	      5.84537661	      5.84537661	     16.78480320	      9.71872374	     -2.94181498	     36.97652806	     -9.39409738	      2.91144390	     21.99353644	     21.99353644	      6.74963545	    -11.23975888	     14.73958962	    -10.10530528	      7.22207175	      6.16429257	     49.23210203	    -17.50523425	     -1.24801465	    100.74558116	     44.39501803	      0.00000000	      0.00000000	    -25.71718985	     -8.08606275	     15.18017068	     33.11495020	     43.81534666	      0.00000000	      0.00000000
     24.10200000	     -5.75965445	     -7.86923650	      3.53382701	      1.02903582	      0.91137640	      0.48348430	     -3.31509448	      6.95343795	    -18.27019140	      6.33964776	      6.33964776	     17.46815671	      9.55114287	     -2.83057057	     36.49386153	     -9.40997104	      2.14824802	     22.25021493	     22.25021493	      5.68405486	    -11.80909903	     14.29673930	     -9.90337892	      7.10205108	      6.19406397	     50.69035228	    -17.18235813	     -1.13869459	    101.81380745	     44.37219517	      0.00000000	      0.00000000	    -26.54060938	     -7.90888155	     15.31276680	     33.17038457	     43.80504976	      0.00000000	      0.00000000
     24.11400000	     -5.80641732	     -7.75387281	      3.25804253	      1.03012976	      0.90981408	      0.48168584	     -3.67505549	      6.60320215	    -17.86381831	      6.90442261	      6.90442261	     18.10729054	      9.27760544	     -2.78597204	     36.15479388	     -9.35894368	      1.53920683	     22.82165652	     22.82165652	      4.71924025	    -12.39009071	     13.88677138	     -9.66223153	      6.82742689	      6.13466661	     51.74802724	    -16.82277093	     -1.02290268	    102.81200966	     44.34671449	      0.00000000	      0.00000000	    -27.22037671	     -7.69745452	     15.44274675	     33.10863763	     43.79054139	      0.00000000	      0.00000000
     24.12600000	     -5.83456066	     -7.64733382	      3.07002670	      1.03099134	      0.90839877	      0.47962923	     -3.66756559	      6.15707495	    -17.30657444	      8.19912661	      8.19912661	     18.97114369	      8.38090732	     -2.50451534	     35.85056181	     -9.23765965	      1.23395928	     23.46377799	     23.46377799	      3.47115556	    -13.17560673	     12.48927977	     -9.52602578	      6.68413728	      5.67558796	     52.70927615	    -16.06003309	     -0.66359471	    104.59460025	     44.29491973	      0.00000000	      0.00000000	    -27.74191010	     -7.44731247	     15.66412546	     33.11327365	     43.78013060	      0.00000000	      0.00000000
     24.13800000	     -5.79029905	     -7.38665358	      2.85992767	      1.03200122	      0.90755994	      0.47741181	     -4.09653308	      5.62157843	    -16.91854317	      8.76931737	      8.76931737	     19.33197144	      8.08557776	     -2.45695570	     35.55170236	     -9.01187432	      0.87082988	     24.41666524	     24.41666524	      2.95928126	    -13.71305345	     12.03402165	     -9.41221907	      6.27817752	      5.55777026	     53.26555602	    -15.92454778	     -0.66781871	    105.20890213	     44.28162283	      0.00000000	      0.00000000	    -27.89142015	     -7.36151247	     15.74792880	     33.02933322	     43.77463632	      0.00000000	      0.00000000
     24.15000000	     -5.83343101	     -7.26456082	      2.76526152	      1.03250535	      0.90669931	      0.47495735	     -3.75797163	      5.07601667	    -16.35927284	     10.58883387	     10.58883387	     20.05061337	      6.81854490	     -2.29468816	     35.42049776	     -8.82117638	      0.81656766	     25.32506985	     25.32506985	      2.27938305	    -14.34358187	     10.56240413	     -9.36181011	      6.17339179	      5.11238764	     53.84370094	    -15.30950884	     -0.54432478	    107.11932438	     44.23195456	      0.00000000	      0.00000000	    -27.70412312	     -7.12755459	     16.01222694	     32.80191584	     43.76767350	      0.00000000	      0.00000000
     24.16200000	     -5.75070203	     -7.08582822	      2.63464999	      1.03323161	      0.90656937	      0.47248328	     -3.79454437	      4.56736136	    -15.62359921	     11.93936934	     11.93936934	     20.69641428	      5.63756773	     -1.12431406	     34.97727320	     -8.59950893	      0.76854815	     25.94204892	     25.94204892	      1.06134110	    -15.23209015	      7.13814081	     -9.43848585	      5.87253247	      5.60319299	     53.45092177	    -15.89335441	     -1.15941616	    109.55085146	     44.22900571	      0.00000000	      0.00000000	    -26.69089767	     -7.26308621	     16.88086855	     31.71940438	     43.77546435	      0.00000000	      0.00000000
     24.17400000	     -5.63778464	     -6.87506544	      2.59059445	      1.03373847	      0.90680444	      0.46960787	     -3.75236452	      3.90588732	    -15.48351425	     13.45763514	     13.45763514	     20.85774982	      5.16671342	     -1.43194427	     34.69376655	     -8.28495879	      0.80425298	     26.94170423	     26.94170423	      1.46509643	    -15.56156636	      6.78087352	     -9.53835777	      5.66952848	      5.15608804	     53.53466997	    -15.49173288	     -1.12283746	    110.35959450	     44.21133655	      0.00000000	      0.00000000	    -26.17670553	     -7.18394842	     17.05937791	     31.63818984	     43.77603066	      0.00000000	      0.00000000
     24.18600000	     -5.66020360	     -6.61618823	      2.56985271	      1.03405226	      0.90727584	      0.46649014	     -3.35434966	      3.12048223	    -15.33185296	     15.33189650	     15.33189650	     20.81361573	      4.47906617	     -2.03192068	     34.47129048	     -7.87497390	      0.84094153	     27.76035715	     27.76035715	      2.08842022	    -15.78829405	      6.71847822	     -9.50870680	      5.42766259	      4.91372476	     53.04463543	    -15.37454314	     -1.29056568	    111.71898493	     44.18888122	      0.00000000	      0.00000000	    -25.18863593	     -7.19875483	     17.32051680	     31.26701780	     43.78778050	      0.00000000	      0.00000000
     24.19800000	     -5.64402860	     -6.40179509	      2.53298388	      1.03433969	      0.90816453	      0.46322224	     -2.95180377	      2.34354499	    -15.26597969	     17.25566905	     17.25566905	     20.51883898	      3.93057780	     -2.85641842	     34.10685515	     -7.49872986	      0.84622986	     28.40097586	     28.40097586	      2.92615053	    -15.94459612	      6.77900453	     -9.56749231	      5.26736279	      4.79549529	     52.38825813	    -15.45358165	     -1.54751431	    112.95911205	     44.17027884	      0.00000000	      0.00000000	    -24.00469256	     -7.24232659	     17.48925781	     30.94015614	     43.81047735	      0.00000000	      0.00000000
     24.21000000	     -5.58789373	     -6.20152947	      2.50965324	      1.03462752	      0.90947212	      0.45981686	     -2.62253333	      1.56618970	    -15.23307007	     19.01078974	     19.01078974	     19.28118158	      3.30392679	     -5.76271766	     33.64867180	     -7.10807829	      0.89253821	     28.96955984	     28.96955984	      4.30800299	    -15.92286468	      8.11878146	     -9.65261106	      5.15154230	      5.49188306	     50.83015586	    -16.38895747	     -2.65673681	    115.33783417	     44.18295127	      0.00000000	      0.00000000	    -21.97534303	     -7.39678887	     18.02814378	     29.56369884	     43.87805301	      0.00000000	      0.00000000
     24.22200000	     -5.57749360	     -6.02483804	      2.46368906	      1.03480353	      0.91089829	      0.45634282	     -2.01780905	      0.72166194	    -15.23617348	     21.16833691	     21.16833691	     17.96757871	      2.68527066	     -8.54021921	     33.09509374	     -6.74488024	      0.85604688	     29.24362859	     29.24362859	      5.30687384	    -15.97738598	      8.55404527	     -9.66970120	      5.09370776	      5.59825114	     49.46032083	    -16.74048563	     -3.09801904	    116.55856783	     44.19933324	      0.00000000	      0.00000000	    -20.50212410	     -7.54211327	     18.02620882	     29.37552702	     43.99393969	      0.00000000	      0.00000000
     24.23400000	     -5.59185688	     -5.86934927	      2.39599899	      1.03490097	      0.91248032	      0.45289200	     -1.24556319	     -0.13054390	    -15.12282094	     23.50935914	     23.50935914	     16.22400004	      1.78622611	    -11.85743767	     32.44527334	     -6.42524889	      0.70816525	     29.28104089	     29.28104089	      6.15727951	    -15.93455279	      8.71117560	     -9.66283571	      5.05809127	      5.72661384	     47.86050940	    -17.08113365	     -3.60497096	    117.56660985	     44.22418826	      0.00000000	      0.00000000	    -18.93078231	     -7.63961703	     17.53467022	     29.24386889	     44.18785232	      0.00000000	      0.00000000
     24.24600000	     -5.53391147	     -5.72472639	      2.30497628	      1.03494080	      0.91427529	      0.44946795	     -0.29371817	     -1.04919809	    -14.98434174	     26.36927274	     26.36927274	     15.11587246	      1.22439726	    -12.67326868	     31.62974914	     -6.16378858	      0.40624535	     29.14883354	     29.14883354	      6.82257421	    -15.78508374	      8.46503467	     -9.70858919	      5.08474042	      5.41374614	     46.39318506	    -16.91045786	     -3.44225432	    117.53047623	     44.21898088	      0.00000000	      0.00000000	    -17.65762579	     -7.80632912	     17.31272217	     29.57259309	     44.25193011	      0.00000000	      0.00000000
     24.25800000	     -5.62159392	     -5.62285446	      2.21237806	      1.03475470	      0.91584934	      0.44615716	      1.04171324	     -1.96355919	    -14.79348096	     29.54440177	     29.54440177	     13.61271708	      0.42014610	    -13.93520834	     30.90177509	     -5.92470893	      0.14747301	     28.84114332	     28.84114332	      7.40929122	    -15.61132904	      8.26031218	     -9.59344938	      5.11379774	      5.28187513	     44.64836082	    -17.04041332	     -3.50911335	    117.62997955	     44.21754876	      0.00000000	      0.00000000	    -16.23760051	     -7.99915459	     16.86219738	     29.98445199	     44.35430592	      0.00000000	      0.00000000
     24.27000000	     -5.67195410	     -5.59835711	      2.11694229	      1.03449955	      0.91745500	      0.44302774	      2.26686504	     -2.65165319	    -14.31365844	     32.21306197	     32.21306197	      9.94433345	     -1.98463961	    -20.15074646	     30.13050961	     -5.78505176	     -0.12179278	     28.49731838	     28.49731838	      7.85976100	    -15.43596863	      7.89725939	     -9.58499199	      5.20769199	      5.76611607	     42.16210001	    -17.66195626	     -4.66856582	    118.64542975	     44.28123250	      0.00000000	      0.00000000	    -14.26931718	     -7.67594227	     13.03474993	     29.71988519	     45.07006450	      0.00000000	      0.00000000
